<mxfile host="app.diagrams.net" modified="2023-06-30T19:08:32.686Z" agent="Mozilla/5.0 (X11; Linux x86_64; rv:108.0) Gecko/20100101 Firefox/108.0" etag="YnSxsYrz8_RaQu3svEgL" version="21.5.2" type="device">
  <diagram name="Page-1" id="COTHiYU2oobBMXKfAucC">
    <mxGraphModel dx="954" dy="512" grid="1" gridSize="10" guides="1" tooltips="1" connect="1" arrows="1" fold="1" page="1" pageScale="1" pageWidth="827" pageHeight="1169" math="0" shadow="0">
      <root>
        <mxCell id="0" />
        <mxCell id="1" parent="0" />
        <mxCell id="dpIyyQrG5vywkC4SpeAJ-1" value="" style="shape=umlLifeline;perimeter=lifelinePerimeter;whiteSpace=wrap;html=1;container=1;dropTarget=0;collapsible=0;recursiveResize=0;outlineConnect=0;portConstraint=eastwest;newEdgeStyle={&quot;edgeStyle&quot;:&quot;elbowEdgeStyle&quot;,&quot;elbow&quot;:&quot;vertical&quot;,&quot;curved&quot;:0,&quot;rounded&quot;:0};participant=umlActor;" parent="1" vertex="1">
          <mxGeometry x="230" y="70" width="20" height="570" as="geometry" />
        </mxCell>
        <mxCell id="dpIyyQrG5vywkC4SpeAJ-2" value="Sistema" style="shape=umlLifeline;perimeter=lifelinePerimeter;whiteSpace=wrap;html=1;container=1;dropTarget=0;collapsible=0;recursiveResize=0;outlineConnect=0;portConstraint=eastwest;newEdgeStyle={&quot;edgeStyle&quot;:&quot;elbowEdgeStyle&quot;,&quot;elbow&quot;:&quot;vertical&quot;,&quot;curved&quot;:0,&quot;rounded&quot;:0};" parent="1" vertex="1">
          <mxGeometry x="430" y="70" width="100" height="570" as="geometry" />
        </mxCell>
        <mxCell id="dpIyyQrG5vywkC4SpeAJ-5" value="" style="endArrow=none;endFill=0;endSize=12;html=1;rounded=0;strokeColor=default;" parent="1" edge="1">
          <mxGeometry width="160" relative="1" as="geometry">
            <mxPoint x="130" y="300" as="sourcePoint" />
            <mxPoint x="560" y="300" as="targetPoint" />
            <Array as="points">
              <mxPoint x="310" y="300" />
            </Array>
          </mxGeometry>
        </mxCell>
        <mxCell id="dpIyyQrG5vywkC4SpeAJ-14" value="LOOP" style="shape=umlFrame;whiteSpace=wrap;html=1;pointerEvents=0;fillColor=#dae8fc;strokeColor=#6c8ebf;" parent="1" vertex="1">
          <mxGeometry x="100" y="850" width="350" height="150" as="geometry" />
        </mxCell>
        <mxCell id="dpIyyQrG5vywkC4SpeAJ-15" value="cancellazionePrenotazione(Disponibilità)" style="html=1;verticalAlign=bottom;endArrow=block;edgeStyle=elbowEdgeStyle;elbow=vertical;curved=0;rounded=0;" parent="1" edge="1">
          <mxGeometry width="80" relative="1" as="geometry">
            <mxPoint x="240" y="480" as="sourcePoint" />
            <mxPoint x="480" y="480" as="targetPoint" />
            <Array as="points">
              <mxPoint x="360" y="480" />
            </Array>
          </mxGeometry>
        </mxCell>
        <mxCell id="dpIyyQrG5vywkC4SpeAJ-16" value="prenotazione cancellata" style="html=1;verticalAlign=bottom;endArrow=none;edgeStyle=elbowEdgeStyle;elbow=vertical;curved=0;rounded=0;startArrow=block;startFill=1;endFill=0;" parent="1" edge="1">
          <mxGeometry width="80" relative="1" as="geometry">
            <mxPoint x="240" y="509.5" as="sourcePoint" />
            <mxPoint x="480" y="509.5" as="targetPoint" />
            <Array as="points">
              <mxPoint x="360" y="509.5" />
            </Array>
          </mxGeometry>
        </mxCell>
        <mxCell id="dpIyyQrG5vywkC4SpeAJ-6" value="LOOP" style="shape=umlFrame;whiteSpace=wrap;html=1;pointerEvents=0;fillColor=#dae8fc;strokeColor=#6c8ebf;" parent="1" vertex="1">
          <mxGeometry x="60" y="120" width="650" height="520" as="geometry" />
        </mxCell>
        <mxCell id="dpIyyQrG5vywkC4SpeAJ-7" value="prenotazionePersonale(Disponibilità, Servizio)" style="html=1;verticalAlign=bottom;endArrow=block;edgeStyle=elbowEdgeStyle;elbow=vertical;curved=0;rounded=0;" parent="1" source="dpIyyQrG5vywkC4SpeAJ-1" target="dpIyyQrG5vywkC4SpeAJ-2" edge="1">
          <mxGeometry width="80" relative="1" as="geometry">
            <mxPoint x="364.28571428571433" y="433.15789473684214" as="sourcePoint" />
            <mxPoint x="467.14285714285717" y="433.15789473684214" as="targetPoint" />
            <Array as="points">
              <mxPoint x="351.42857142857144" y="231.05263157894737" />
            </Array>
          </mxGeometry>
        </mxCell>
        <mxCell id="dpIyyQrG5vywkC4SpeAJ-9" value="ALT" style="shape=umlFrame;whiteSpace=wrap;html=1;pointerEvents=0;fillColor=#f8cecc;strokeColor=#b85450;" parent="1" vertex="1">
          <mxGeometry x="132.86" y="180" width="427.14" height="240" as="geometry" />
        </mxCell>
        <mxCell id="dpIyyQrG5vywkC4SpeAJ-11" value="disponibilità prenotata" style="html=1;verticalAlign=bottom;endArrow=none;edgeStyle=elbowEdgeStyle;elbow=vertical;curved=0;rounded=0;startArrow=block;startFill=1;endFill=0;" parent="1" target="dpIyyQrG5vywkC4SpeAJ-2" edge="1">
          <mxGeometry width="80" relative="1" as="geometry">
            <mxPoint x="240.00285714285718" y="290.0041148325359" as="sourcePoint" />
            <mxPoint x="548.5742857142858" y="290.0041148325359" as="targetPoint" />
            <Array as="points">
              <mxPoint x="394.28857142857146" y="290.0041148325359" />
            </Array>
          </mxGeometry>
        </mxCell>
        <mxCell id="qZ2boYRAXG8nGibsNEoF-3" value="il membro scelto lavora ad un altro evento" style="html=1;verticalAlign=bottom;endArrow=none;edgeStyle=elbowEdgeStyle;elbow=vertical;curved=0;rounded=0;startArrow=block;startFill=1;endFill=0;" parent="1" edge="1">
          <mxGeometry width="80" relative="1" as="geometry">
            <mxPoint x="240.00285714285718" y="339.99545454545455" as="sourcePoint" />
            <mxPoint x="480" y="340" as="targetPoint" />
            <Array as="points">
              <mxPoint x="394.28857142857146" y="339.99545454545455" />
            </Array>
          </mxGeometry>
        </mxCell>
        <mxCell id="dpIyyQrG5vywkC4SpeAJ-8" value="" style="endArrow=none;endFill=0;endSize=12;html=1;rounded=0;startArrow=none;startFill=0;entryX=0.998;entryY=0.35;entryDx=0;entryDy=0;entryPerimeter=0;" parent="1" target="dpIyyQrG5vywkC4SpeAJ-9" edge="1">
          <mxGeometry width="160" relative="1" as="geometry">
            <mxPoint x="130" y="260" as="sourcePoint" />
            <mxPoint x="560" y="240" as="targetPoint" />
            <Array as="points" />
          </mxGeometry>
        </mxCell>
        <mxCell id="uiPtFsobEfXlULVtx7NJ-2" value="ALT" style="shape=umlFrame;whiteSpace=wrap;html=1;pointerEvents=0;fillColor=#f8cecc;strokeColor=#b85450;" parent="1" vertex="1">
          <mxGeometry x="70" y="160" width="590" height="470" as="geometry" />
        </mxCell>
        <mxCell id="uiPtFsobEfXlULVtx7NJ-3" value="" style="endArrow=none;html=1;rounded=0;exitX=0.003;exitY=0.63;exitDx=0;exitDy=0;exitPerimeter=0;entryX=1.003;entryY=0.626;entryDx=0;entryDy=0;entryPerimeter=0;" parent="1" edge="1">
          <mxGeometry width="50" height="50" relative="1" as="geometry">
            <mxPoint x="69.99999999999999" y="441.84" as="sourcePoint" />
            <mxPoint x="660" y="440.00000000000006" as="targetPoint" />
            <Array as="points" />
          </mxGeometry>
        </mxCell>
        <mxCell id="uiPtFsobEfXlULVtx7NJ-4" value="" style="endArrow=none;endFill=0;endSize=12;html=1;rounded=0;startArrow=none;startFill=0;exitX=-0.006;exitY=0.745;exitDx=0;exitDy=0;exitPerimeter=0;entryX=0.994;entryY=0.745;entryDx=0;entryDy=0;entryPerimeter=0;" parent="1" edge="1">
          <mxGeometry width="160" relative="1" as="geometry">
            <mxPoint x="135.71142857142868" y="364.4994736842105" as="sourcePoint" />
            <mxPoint x="559.9971428571429" y="364.4994736842105" as="targetPoint" />
          </mxGeometry>
        </mxCell>
        <mxCell id="uiPtFsobEfXlULVtx7NJ-5" value="L&#39;evento è in corso" style="html=1;verticalAlign=bottom;endArrow=none;edgeStyle=elbowEdgeStyle;elbow=vertical;curved=0;rounded=0;startArrow=block;startFill=1;endFill=0;" parent="1" edge="1">
          <mxGeometry width="80" relative="1" as="geometry">
            <mxPoint x="240.00285714285718" y="399.99545454545455" as="sourcePoint" />
            <mxPoint x="480" y="400" as="targetPoint" />
            <Array as="points">
              <mxPoint x="394.28857142857146" y="399.99545454545455" />
            </Array>
          </mxGeometry>
        </mxCell>
        <mxCell id="uiPtFsobEfXlULVtx7NJ-7" value="ALT" style="shape=umlFrame;whiteSpace=wrap;html=1;pointerEvents=0;fillColor=#f8cecc;strokeColor=#b85450;" parent="1" vertex="1">
          <mxGeometry x="132.86" y="450" width="427.14" height="170" as="geometry" />
        </mxCell>
        <mxCell id="uiPtFsobEfXlULVtx7NJ-8" value="" style="endArrow=none;endFill=0;endSize=12;html=1;rounded=0;startArrow=none;startFill=0;exitX=-0.006;exitY=0.745;exitDx=0;exitDy=0;exitPerimeter=0;entryX=0.994;entryY=0.745;entryDx=0;entryDy=0;entryPerimeter=0;" parent="1" edge="1">
          <mxGeometry width="160" relative="1" as="geometry">
            <mxPoint x="135.71142857142868" y="489.9994736842105" as="sourcePoint" />
            <mxPoint x="559.9971428571429" y="489.9994736842105" as="targetPoint" />
          </mxGeometry>
        </mxCell>
        <mxCell id="uiPtFsobEfXlULVtx7NJ-9" value="" style="endArrow=none;endFill=0;endSize=12;html=1;rounded=0;startArrow=none;startFill=0;exitX=-0.006;exitY=0.745;exitDx=0;exitDy=0;exitPerimeter=0;entryX=0.994;entryY=0.745;entryDx=0;entryDy=0;entryPerimeter=0;" parent="1" edge="1">
          <mxGeometry width="160" relative="1" as="geometry">
            <mxPoint x="134.2914285714287" y="529.9994736842104" as="sourcePoint" />
            <mxPoint x="558.5771428571429" y="529.9994736842104" as="targetPoint" />
          </mxGeometry>
        </mxCell>
        <mxCell id="uiPtFsobEfXlULVtx7NJ-10" value="L&#39;evento è in corso" style="html=1;verticalAlign=bottom;endArrow=none;edgeStyle=elbowEdgeStyle;elbow=vertical;curved=0;rounded=0;startArrow=block;startFill=1;endFill=0;" parent="1" edge="1">
          <mxGeometry width="80" relative="1" as="geometry">
            <mxPoint x="240" y="550" as="sourcePoint" />
            <mxPoint x="480" y="550" as="targetPoint" />
            <Array as="points">
              <mxPoint x="360" y="550" />
            </Array>
          </mxGeometry>
        </mxCell>
        <mxCell id="QcmMJp6a7x1nr6oH7qcu-1" value="" style="endArrow=none;endFill=0;endSize=12;html=1;rounded=0;startArrow=none;startFill=0;exitX=-0.006;exitY=0.745;exitDx=0;exitDy=0;exitPerimeter=0;entryX=0.994;entryY=0.745;entryDx=0;entryDy=0;entryPerimeter=0;" edge="1" parent="1">
          <mxGeometry width="160" relative="1" as="geometry">
            <mxPoint x="135.71142857142868" y="559.9994736842104" as="sourcePoint" />
            <mxPoint x="559.9971428571429" y="559.9994736842104" as="targetPoint" />
          </mxGeometry>
        </mxCell>
        <mxCell id="QcmMJp6a7x1nr6oH7qcu-2" value="La disponibilità non è riferita al servizio indicato" style="html=1;verticalAlign=bottom;endArrow=none;edgeStyle=elbowEdgeStyle;elbow=vertical;curved=0;rounded=0;startArrow=block;startFill=1;endFill=0;" edge="1" parent="1">
          <mxGeometry width="80" relative="1" as="geometry">
            <mxPoint x="240" y="584" as="sourcePoint" />
            <mxPoint x="480" y="584" as="targetPoint" />
            <Array as="points">
              <mxPoint x="360" y="584" />
            </Array>
          </mxGeometry>
        </mxCell>
        <mxCell id="QcmMJp6a7x1nr6oH7qcu-3" value="" style="endArrow=none;endFill=0;endSize=12;html=1;rounded=0;startArrow=none;startFill=0;exitX=-0.006;exitY=0.745;exitDx=0;exitDy=0;exitPerimeter=0;entryX=0.994;entryY=0.745;entryDx=0;entryDy=0;entryPerimeter=0;" edge="1" parent="1">
          <mxGeometry width="160" relative="1" as="geometry">
            <mxPoint x="135.71142857142868" y="589.9994736842104" as="sourcePoint" />
            <mxPoint x="559.9971428571429" y="589.9994736842104" as="targetPoint" />
          </mxGeometry>
        </mxCell>
        <mxCell id="QcmMJp6a7x1nr6oH7qcu-4" value="Il servizio non è parte dell&#39;evento corrente" style="html=1;verticalAlign=bottom;endArrow=none;edgeStyle=elbowEdgeStyle;elbow=vertical;curved=0;rounded=0;startArrow=block;startFill=1;endFill=0;" edge="1" parent="1">
          <mxGeometry width="80" relative="1" as="geometry">
            <mxPoint x="240" y="610" as="sourcePoint" />
            <mxPoint x="480" y="610" as="targetPoint" />
            <Array as="points">
              <mxPoint x="360" y="610" />
            </Array>
          </mxGeometry>
        </mxCell>
      </root>
    </mxGraphModel>
  </diagram>
</mxfile>
